<?xml version="1.0" encoding="UTF-8" standalone="no"?>
<!DOCTYPE svg PUBLIC "-//W3C//DTD SVG 1.1//EN" "http://www.w3.org/Graphics/SVG/1.1/DTD/svg11.dtd">
<svg width="100%" height="100%" viewBox="0 0 800 800" version="1.1" xmlns="http://www.w3.org/2000/svg" xmlns:xlink="http://www.w3.org/1999/xlink" xml:space="preserve" xmlns:serif="http://www.serif.com/" style="fill-rule:evenodd;clip-rule:evenodd;stroke-linejoin:round;stroke-miterlimit:2;">
    <path d="M527.533,502.3C546.142,502.309 561.45,517.624 561.45,536.233C561.45,554.849 546.132,570.167 527.517,570.167C527.511,570.167 527.506,570.167 527.5,570.167C508.885,570.167 493.567,554.849 493.567,536.233C493.567,517.618 508.885,502.3 527.5,502.3L527.533,502.3ZM710.9,37C710.906,37 710.911,37 710.917,37C729.532,37 744.85,52.318 744.85,70.933C744.85,89.542 729.542,104.858 710.933,104.867C692.318,104.867 677,89.549 677,70.933C677,52.318 692.318,37 710.933,37L710.9,37ZM110.733,103.567L647.933,103.567C660.103,127.082 684.456,141.912 710.933,141.933C750.067,141.933 781.9,110.1 781.9,70.933C781.845,32.016 749.817,0.018 710.9,0C681.233,0 655.767,18.333 645.233,44.3L110.7,44.3C58.8,44.3 18.1,83.667 18.1,133.967L18.1,705.833C18.1,756.867 60.533,800 110.733,800L682.567,800C732.9,800 773.833,757.767 773.833,705.833L773.833,366.6C773.833,315.533 732.9,273.933 682.567,273.933L343.333,273.933C291.567,273.933 247.8,316.4 247.8,366.6L247.8,473.2C247.8,522.667 290.667,562.9 343.333,562.9L461.8,562.9C472.654,589.595 498.716,607.159 527.533,607.2C566.667,607.2 598.5,575.333 598.5,536.2C598.5,497.067 566.667,465.233 527.5,465.233C501.027,465.273 476.689,480.116 464.533,503.633L343.333,503.633C325.9,503.633 307.067,492 307.067,473.2L307.067,366.6C307.067,349.133 324.367,333.267 343.333,333.267L682.567,333.267C700.5,333.267 714.567,347.9 714.567,366.6L714.567,705.833C714.567,724.733 699.9,740.733 682.567,740.733L110.733,740.733C92.967,740.733 77.4,724.4 77.4,705.833L77.4,134C77.4,116.667 91.733,103.6 110.733,103.6" style="fill:rgb(229,231,235);fill-rule:nonzero;"/>
</svg>
